<?xml version="1.0" standalone="no"?>
<!DOCTYPE svg PUBLIC "-//W3C//DTD SVG 20010904//EN"
 "http://www.w3.org/TR/2001/REC-SVG-20010904/DTD/svg10.dtd">
<svg version="1.0" xmlns="http://www.w3.org/2000/svg"
 width="61.000000pt" height="52.000000pt" viewBox="0 0 61.000000 52.000000"
 preserveAspectRatio="xMidYMid meet">

<g transform="translate(0.000000,52.000000) scale(0.100000,-0.100000)"
fill="#000000" stroke="none">
<path d="M254 485 c-18 -19 -37 -35 -43 -35 -15 0 -83 -32 -103 -49 -10 -8
-18 -24 -18 -37 0 -25 -34 -54 -63 -54 -26 0 -30 -22 -18 -82 15 -69 52 -120
107 -149 36 -20 44 -29 44 -51 l0 -28 140 0 140 0 0 28 c0 24 7 32 42 48 22
10 54 36 69 57 37 51 65 177 39 177 -18 0 -77 65 -83 92 -13 49 -126 118 -195
118 -15 0 -37 -13 -58 -35z m127 -1 c28 -9 53 -23 56 -30 3 -8 12 -14 19 -14
16 0 38 -46 29 -60 -3 -5 8 -19 25 -31 16 -13 30 -26 30 -31 0 -4 -102 -8
-226 -8 -180 0 -224 3 -216 13 5 6 12 23 14 37 4 29 66 68 111 69 17 1 27 6
27 16 0 22 37 55 61 55 11 0 43 -7 70 -16z m199 -206 c0 -41 -21 -102 -47
-137 -43 -56 -90 -71 -233 -71 -143 0 -190 15 -233 72 -26 34 -52 121 -43 145
4 10 61 13 281 13 l275 0 0 -22z m-152 -240 c-3 -9 -40 -14 -126 -16 -104 -2
-122 0 -122 13 0 13 20 15 126 15 96 0 125 -3 122 -12z"/>
<path d="M216 372 c-3 -6 -1 -14 5 -17 15 -10 25 3 12 16 -7 7 -13 7 -17 1z"/>
<path d="M425 360 c-3 -5 -1 -10 4 -10 6 0 11 5 11 10 0 6 -2 10 -4 10 -3 0
-8 -4 -11 -10z"/>
<path d="M457 145 c-11 -7 -36 -17 -58 -20 -21 -4 -37 -11 -34 -16 11 -17 114
15 130 41 9 15 -17 12 -38 -5z"/>
</g>
</svg>
