<?xml version="1.0" encoding="UTF-8"?>
<svg xmlns="http://www.w3.org/2000/svg" xmlns:xlink="http://www.w3.org/1999/xlink" width="81px" height="81px" viewBox="0 0 81 81" version="1.1">
<g id="surface1">
<path style=" stroke:none;fill-rule:nonzero;fill:rgb(15.686275%,17.647059%,20%);fill-opacity:1;" d="M 66.070312 39.691406 C 61.023438 39.691406 56.917969 35.628906 56.914062 30.636719 L 56.917969 9.058594 C 56.917969 4.0625 61.023438 0 66.070312 0 C 71.117188 0 75.222656 4.0625 75.222656 9.058594 L 75.222656 30.636719 C 75.222656 35.628906 71.117188 39.691406 66.070312 39.691406 Z M 66.070312 2.53125 C 62.417969 2.53125 59.449219 5.460938 59.449219 9.058594 L 59.445312 30.636719 C 59.449219 34.234375 62.417969 37.160156 66.066406 37.160156 L 66.070312 37.160156 C 69.722656 37.160156 72.691406 34.234375 72.691406 30.636719 L 72.691406 9.058594 C 72.691406 5.460938 69.722656 2.53125 66.070312 2.53125 Z M 66.070312 2.53125 "/>
<path style=" stroke:none;fill-rule:nonzero;fill:rgb(15.686275%,17.647059%,20%);fill-opacity:1;" d="M 66.070312 39.691406 C 61.023438 39.691406 56.917969 35.628906 56.914062 30.636719 L 56.914062 18.460938 L 75.222656 18.460938 L 75.222656 30.636719 C 75.222656 33.058594 74.269531 35.335938 72.535156 37.046875 C 70.808594 38.753906 68.511719 39.691406 66.070312 39.691406 Z M 59.445312 20.992188 L 59.445312 30.636719 C 59.449219 34.234375 62.417969 37.160156 66.066406 37.160156 L 66.070312 37.160156 C 67.839844 37.160156 69.507812 36.480469 70.757812 35.246094 C 72.003906 34.011719 72.691406 32.375 72.691406 30.636719 L 72.691406 20.992188 Z M 59.445312 20.992188 "/>
<path style=" stroke:none;fill-rule:nonzero;fill:rgb(15.686275%,17.647059%,20%);fill-opacity:1;" d="M 48.054688 81 L 9.527344 81 C 7.457031 81 5.777344 79.328125 5.777344 77.277344 L 5.777344 36.214844 C 5.777344 28.453125 9.921875 21.292969 16.652344 17.351562 L 16.652344 14.796875 L 19.183594 14.796875 L 19.183594 18.84375 L 18.519531 19.203125 C 12.21875 22.613281 8.308594 29.132812 8.308594 36.210938 L 8.308594 77.277344 C 8.308594 77.933594 8.855469 78.46875 9.527344 78.46875 L 48.054688 78.46875 C 48.382812 78.46875 48.691406 78.34375 48.921875 78.113281 C 49.148438 77.890625 49.273438 77.59375 49.273438 77.277344 L 49.273438 36.214844 C 49.273438 29.132812 45.363281 22.613281 39.0625 19.203125 L 38.402344 18.84375 L 38.402344 14.796875 L 40.933594 14.796875 L 40.933594 17.351562 C 47.660156 21.292969 51.804688 28.453125 51.804688 36.214844 L 51.804688 77.277344 C 51.804688 78.273438 51.414062 79.210938 50.703125 79.914062 C 49.992188 80.617188 49.054688 81 48.054688 81 Z M 48.054688 81 "/>
<path style=" stroke:none;fill-rule:nonzero;fill:rgb(15.686275%,17.647059%,20%);fill-opacity:1;" d="M 43.441406 15.859375 L 14.140625 15.855469 L 14.140625 2.375 L 43.441406 2.375 Z M 16.671875 13.324219 L 40.910156 13.328125 L 40.910156 4.90625 L 16.671875 4.90625 Z M 16.671875 13.324219 "/>
<path style=" stroke:none;fill-rule:nonzero;fill:rgb(15.686275%,17.647059%,20%);fill-opacity:1;" d="M 28.792969 68.054688 C 19.789062 68.054688 12.46875 60.8125 12.46875 51.914062 C 12.46875 43.015625 19.789062 35.777344 28.792969 35.777344 C 33.148438 35.777344 37.246094 37.453125 40.328125 40.496094 C 43.414062 43.546875 45.113281 47.597656 45.113281 51.914062 C 45.113281 60.8125 37.789062 68.054688 28.792969 68.054688 Z M 28.792969 38.308594 C 21.1875 38.308594 15 44.410156 15 51.914062 C 15 59.417969 21.1875 65.523438 28.792969 65.523438 C 36.394531 65.523438 42.582031 59.417969 42.582031 51.914062 C 42.582031 48.28125 41.148438 44.867188 38.546875 42.296875 C 35.941406 39.722656 32.476562 38.308594 28.792969 38.308594 Z M 28.792969 38.308594 "/>
<path style=" stroke:none;fill-rule:nonzero;fill:rgb(15.686275%,17.647059%,20%);fill-opacity:1;" d="M 20.308594 3.882812 L 22.839844 3.882812 L 22.839844 10.496094 L 20.308594 10.496094 Z M 20.308594 3.882812 "/>
<path style=" stroke:none;fill-rule:nonzero;fill:rgb(15.686275%,17.647059%,20%);fill-opacity:1;" d="M 27.527344 3.882812 L 30.058594 3.882812 L 30.058594 10.496094 L 27.527344 10.496094 Z M 27.527344 3.882812 "/>
<path style=" stroke:none;fill-rule:nonzero;fill:rgb(15.686275%,17.647059%,20%);fill-opacity:1;" d="M 34.738281 3.882812 L 37.269531 3.882812 L 37.269531 10.496094 L 34.738281 10.496094 Z M 34.738281 3.882812 "/>
<path style=" stroke:none;fill-rule:nonzero;fill:rgb(15.686275%,17.647059%,20%);fill-opacity:1;" d="M 27.523438 44.613281 L 30.054688 44.613281 L 30.054688 59.214844 L 27.523438 59.214844 Z M 27.523438 44.613281 "/>
<path style=" stroke:none;fill-rule:nonzero;fill:rgb(15.686275%,17.647059%,20%);fill-opacity:1;" d="M 21.398438 50.648438 L 36.183594 50.648438 L 36.183594 53.179688 L 21.398438 53.179688 Z M 21.398438 50.648438 "/>
</g>
</svg>
