<?xml version="1.0" standalone="no"?>
<!DOCTYPE svg PUBLIC "-//W3C//DTD SVG 20010904//EN"
 "http://www.w3.org/TR/2001/REC-SVG-20010904/DTD/svg10.dtd">
<svg version="1.0" xmlns="http://www.w3.org/2000/svg"
 width="53.000000pt" height="53.000000pt" viewBox="0 0 53.000000 53.000000"
 preserveAspectRatio="xMidYMid meet">

<g transform="translate(0.000000,53.000000) scale(0.100000,-0.100000)"
fill="#000000" stroke="none">
<path d="M390 510 c-23 -23 -24 -33 -10 -61 9 -16 7 -21 -13 -28 -13 -5 -27
-17 -31 -26 -10 -27 -7 -175 4 -175 6 0 10 36 10 89 0 72 3 90 16 95 28 11
120 6 132 -6 15 -15 17 -188 2 -188 -6 0 -10 30 -10 70 0 40 -4 70 -10 70 -6
0 -10 -60 -10 -160 0 -136 -2 -160 -15 -160 -12 0 -15 14 -15 70 0 40 -4 70
-10 70 -6 0 -10 -30 -10 -70 0 -63 -2 -70 -20 -70 -18 0 -20 8 -23 163 l-3
162 -2 -172 -2 -173 60 0 60 0 0 88 c0 76 2 89 20 100 17 11 20 23 20 98 0 94
-10 124 -41 124 -16 0 -19 4 -14 18 17 39 16 51 -4 71 -26 26 -55 27 -81 1z
m76 -25 c11 -43 -34 -73 -64 -43 -27 27 -6 68 35 68 16 0 24 -7 29 -25z"/>
<path d="M72 484 c-23 -16 -31 -67 -11 -79 6 -5 3 -12 -9 -21 -31 -21 -53 -97
-40 -135 6 -17 8 -54 4 -85 l-6 -54 91 0 92 0 -7 40 c-3 22 -3 40 2 40 20 0
32 -28 32 -72 0 -26 4 -48 9 -48 6 0 12 -15 14 -32 l4 -33 1 33 c3 43 32 45
32 2 0 -17 5 -30 10 -30 6 0 10 13 10 30 0 17 4 30 9 30 5 0 11 24 13 53 2 28
8 61 13 72 8 18 6 18 -17 -2 -27 -25 -86 -31 -92 -10 -2 6 -14 49 -26 95 -16
58 -30 89 -47 102 -13 10 -20 21 -15 24 22 13 20 49 -3 72 -28 28 -33 29 -63
8z m56 -16 c28 -28 1 -75 -37 -63 -11 3 -23 15 -26 26 -12 38 35 65 63 37z
m22 -102 c10 -13 50 -129 50 -148 0 -5 -7 -8 -15 -8 -8 0 -15 7 -15 15 0 32
-22 115 -30 110 -4 -2 1 -44 11 -92 27 -131 30 -123 -51 -123 -54 0 -70 3 -70
14 0 13 21 123 35 184 3 12 1 22 -4 22 -5 0 -13 -21 -17 -46 -4 -32 -10 -42
-17 -35 -11 11 6 85 25 109 14 17 83 15 98 -2z m150 -241 c0 -32 -2 -35 -30
-35 -28 0 -30 3 -30 35 0 32 2 35 30 35 28 0 30 -3 30 -35z"/>
<path d="M240 240 c-9 -16 -8 -25 1 -36 26 -32 84 0 62 34 -16 26 -50 27 -63
2z m48 -17 c-2 -10 -10 -18 -18 -18 -8 0 -16 8 -18 18 -2 12 3 17 18 17 15 0
20 -5 18 -17z"/>
<path d="M64 74 c3 -9 6 -29 6 -45 0 -26 4 -29 30 -29 24 0 30 4 30 23 0 12 3
32 6 45 4 13 2 22 -5 22 -6 0 -11 -16 -11 -36 0 -28 -3 -35 -17 -32 -12 2 -19
14 -21 36 -2 17 -8 32 -14 32 -5 0 -7 -7 -4 -16z"/>
</g>
</svg>
